<svg width="24" height="24" viewBox="0 0 24 24" fill="none" xmlns="http://www.w3.org/2000/svg">
<path d="M7.33334 20.3333C7.15653 20.3333 6.98696 20.2455 6.86193 20.0892C6.73691 19.9329 6.66667 19.721 6.66667 19.5V4.49996C6.66667 4.27895 6.73691 4.06698 6.86193 3.9107C6.98696 3.75442 7.15653 3.66663 7.33334 3.66663H16.6667C16.8435 3.66663 17.0131 3.75442 17.1381 3.9107C17.2631 4.06698 17.3333 4.27895 17.3333 4.49996V6.99996H16V5.33329H8.00001V18.6666H16V17H17.3333V19.5C17.3333 19.721 17.2631 19.9329 17.1381 20.0892C17.0131 20.2455 16.8435 20.3333 16.6667 20.3333H7.33334ZM16 15.3333V12.8333H11.3333V11.1666H16V8.66663L19.3333 12L16 15.3333Z" fill="#0BCAD4"/>
</svg>
